<?xml version="1.0" encoding="UTF-8"?>
<svg width="20px" height="20px" viewBox="0 0 20 20" version="1.1" xmlns="http://www.w3.org/2000/svg" xmlns:xlink="http://www.w3.org/1999/xlink">
    <!-- Generator: Sketch 47.1 (45422) - http://www.bohemiancoding.com/sketch -->
    <title>dribbble</title>
    <desc>Created with Sketch.</desc>
    <defs></defs>
    <g id="Page-1" stroke="none" stroke-width="1" fill="none" fill-rule="evenodd">
        <g id="头像hover" transform="translate(-677.000000, -532.000000)" fill-rule="nonzero" fill="#FFFFFF">
            <g id="Group-14" transform="translate(198.000000, 436.000000)">
                <g id="Group" transform="translate(411.000000, 96.000000)">
                    <g id="github" transform="translate(34.000000, 0.000000)">
                        <path d="M47.3292027,17.8622323 C46.964738,15.770691 46.3572969,13.6099013 45.5068793,11.3798633 L45.4806378,11.3798633 L45.4543964,11.3929841 C45.3154138,11.444981 45.1288079,11.5166591 44.8945786,11.6080182 C44.6603493,11.6993774 44.2220197,11.9119818 43.57959,12.2458314 C42.9371602,12.5796811 42.3428398,12.9353986 41.7966287,13.3129841 C41.2504176,13.6905695 40.6820957,14.1874563 40.0916629,14.8036446 C39.5012301,15.419833 39.0543964,16.0620197 38.7511617,16.730205 L38.5558087,16.5873349 C40.15265,17.8892027 41.9662263,18.5401367 43.9965376,18.5401367 C45.1419286,18.5401367 46.252574,18.3144115 47.3284738,17.8629613 L47.3292027,17.8622323 Z M44.92082,9.96063781 C44.7385877,9.53542901 44.508732,9.05384966 44.2312528,8.51589977 C41.5322703,9.32306758 38.6121792,9.72665148 35.4709795,9.72665148 C35.4622323,9.7873956 35.4578588,9.87851177 35.4578588,10 C35.4578588,11.0758998 35.6488383,12.1019894 36.0307973,13.0782688 C36.4127563,14.0545482 36.9507062,14.9287775 37.6446469,15.7009567 C38.0786029,14.9287775 38.614366,14.2064085 39.2519362,13.5338497 C39.8895065,12.8612908 40.5078815,12.3211541 41.1070615,11.9134396 C41.7062415,11.5057251 42.2723766,11.1543812 42.805467,10.8594077 C43.3385573,10.5644343 43.7703265,10.3562035 44.1007745,10.2347153 L44.5825968,10.0656036 C44.6170995,10.0568565 44.67347,10.041549 44.7517084,10.0196811 C44.8299468,9.99781321 44.8863174,9.97837509 44.92082,9.96136674 L44.92082,9.96063781 Z M43.527836,7.20164009 C42.4864389,5.35307517 41.4277904,3.71298405 40.3518907,2.28136674 C39.1545027,2.84555809 38.139104,3.65248292 37.3056948,4.70214123 C36.4722855,5.75179954 35.9168413,6.93193622 35.6393622,8.24255125 C38.2601063,8.24255125 40.8893546,7.89533789 43.5271071,7.20091116 L43.527836,7.20164009 Z M52.4317084,11.3536219 C50.609385,10.8331663 48.8346849,10.7073045 47.1076082,10.9760364 C47.862779,13.0500835 48.4182232,15.0850114 48.7739408,17.08082 C49.7370995,16.4301291 50.5398937,15.6078967 51.1823235,14.614123 C51.8247532,13.6203493 52.2412149,12.5335156 52.4317084,11.3536219 L52.4317084,11.3536219 Z M42.0271071,1.70842825 C41.9937737,1.70842825 41.9604404,1.72762825 41.9271071,1.76602825 C41.9604404,1.72762825 41.9937737,1.70842825 42.0271071,1.70842825 Z M49.6326196,3.59562642 C48.0270311,2.17227031 46.1483371,1.46059226 43.9965376,1.46059226 C43.3370995,1.46059226 42.6645406,1.54296128 41.978861,1.70769932 C43.1155049,3.18305239 44.1829005,4.84039484 45.1810478,6.67972665 C45.7797418,6.4542445 46.3436902,6.19182992 46.8728929,5.89248292 C47.4020957,5.59313591 47.8207441,5.32634776 48.1288383,5.09211845 C48.4369324,4.85788914 48.7212149,4.6105391 48.9816856,4.35006834 C49.2421564,4.08959757 49.4049506,3.91392559 49.4700683,3.82305239 L49.6326196,3.59562642 Z M52.5359453,9.90888383 C52.5097039,7.89558087 51.8631435,6.11675019 50.5962642,4.5723918 L50.5831435,4.58551253 C50.5049051,4.68950645 50.4225361,4.79593014 50.3360364,4.9047836 C50.2495368,5.01363705 50.0607441,5.20680334 49.7696583,5.48428246 C49.4785725,5.76176158 49.1704784,6.02417616 48.8453759,6.2715262 C48.5202733,6.51887623 48.0863174,6.80097191 47.543508,7.11781321 C47.0006986,7.43465452 46.4301898,7.7145634 45.8319818,7.95753986 C46.0487168,8.41725133 46.2396963,8.82933941 46.4049203,9.1938041 C46.4224146,9.23705391 46.4505998,9.31091875 46.4894761,9.41539863 C46.5283523,9.51987851 46.5609112,9.59374336 46.5871526,9.63699317 C46.8996203,9.59374336 47.222779,9.5633713 47.5566287,9.54587699 C47.8904784,9.52838269 48.2095065,9.51963554 48.513713,9.51963554 C48.8179195,9.51963554 49.1172665,9.5261959 49.411754,9.53931663 C49.7062415,9.55243736 49.9839636,9.56968869 50.2449203,9.59107062 C50.505877,9.61245254 50.7510402,9.63626424 50.98041,9.66250569 C51.2097798,9.68874715 51.4180106,9.71693242 51.6051025,9.7470615 C51.7921944,9.77719058 51.950615,9.80318907 52.0803645,9.82505695 C52.2101139,9.84692483 52.3184814,9.86636295 52.405467,9.8833713 L52.5359453,9.90888383 Z M53.9938041,10 C53.9938041,11.8135763 53.5469704,13.4862263 52.653303,15.0179499 C51.7596355,16.5496735 50.54694,17.762369 49.0152164,18.6560364 C47.4834928,19.5497039 45.8108428,19.9965376 43.9972665,19.9965376 C42.1836902,19.9965376 40.5110402,19.5497039 38.9793166,18.6560364 C37.447593,17.762369 36.2348975,16.5496735 35.3412301,15.0179499 C34.4475626,13.4862263 34.0007289,11.8135763 34.0007289,10 C34.0007289,8.18642369 34.4475626,6.51377373 35.3412301,4.98205011 C36.2348975,3.4503265 37.447593,2.23763098 38.9793166,1.34396355 C40.5110402,0.450296128 42.1836902,0.00346241458 43.9972665,0.00346241458 C45.8108428,0.00346241458 47.4834928,0.450296128 49.0152164,1.34396355 C50.54694,2.23763098 51.7596355,3.4503265 52.653303,4.98205011 C53.5469704,6.51377373 53.9938041,8.18642369 53.9938041,10 Z" id="dribbble"></path>
                    </g>
                </g>
            </g>
        </g>
    </g>
</svg>