<svg width="18px" height="18px" viewBox="0 0 18 18" version="1.1" xmlns="http://www.w3.org/2000/svg" xmlns:xlink="http://www.w3.org/1999/xlink">
    <!-- Generator: Sketch 46.2 (44496) - http://www.bohemiancoding.com/sketch -->
    <title>github</title>
    <desc>Created with Sketch.</desc>
    <defs></defs>
    <g id="Page-2" stroke="none" stroke-width="1" fill="none" fill-rule="evenodd">
        <g id="关于我们-copy-2" transform="translate(-1322.000000, -4608.000000)" fill-rule="nonzero" fill="#ffffff">
            <g id="github" transform="translate(1322.000000, 4608.000000)">
                <path d="M8.99598662,0.0123569794 C4.02943144,0.0102974828 0.00602006689,4.1395881 0.00602006689,9.23684211 C0.00602006689,13.2652174 2.52240803,16.6901602 6.02809365,17.9485126 C6.49966555,18.0720824 6.42742475,17.7240275 6.42742475,17.4892449 L6.42742475,15.8910755 C3.70033445,16.220595 3.59197324,14.3670481 3.40735786,14.0581236 C3.0361204,13.4093822 2.1632107,13.2446224 2.42408027,12.9356979 C3.04615385,12.6061785 3.67826087,13.0180778 4.41070234,14.1302059 C4.94247492,14.9354691 5.97391304,14.7995423 6.49966555,14.6656751 C6.61404682,14.1816934 6.86086957,13.7491991 7.19598662,13.4114416 C4.37458194,12.8965675 3.19464883,11.1254005 3.19464883,9.02059497 C3.19464883,8.00114416 3.52173913,7.06201373 4.16588629,6.30617849 C3.75652174,5.05606407 4.20401338,3.98924485 4.26421405,3.83066362 C5.43210702,3.7215103 6.64214047,4.68741419 6.73846154,4.76361556 C7.40267559,4.58032037 8.15919732,4.48146453 9.00602007,4.48146453 C9.85886288,4.48146453 10.619398,4.58237986 11.2856187,4.76773455 C11.5123746,4.59061785 12.6381271,3.76270023 13.7217391,3.86361556 C13.7799331,4.0221968 14.2173913,5.06430206 13.832107,6.2979405 C14.4842809,7.05583524 14.8133779,8.00114416 14.8133779,9.02677346 C14.8133779,11.1356979 13.6294314,12.906865 10.7959866,13.4196796 C11.2695652,13.8974828 11.5625418,14.5627002 11.5625418,15.2979405 L11.5625418,17.6169336 C11.5785953,17.8002288 11.5625418,17.987643 11.8655518,17.987643 C15.4254181,16.7540046 17.9859532,13.3043478 17.9859532,9.2389016 C17.9859532,4.1416476 13.9605351,0.0123569794 8.99598662,0.0123569794 Z" id="Shape"></path>
            </g>
        </g>
    </g>
</svg>