<?xml version="1.0" encoding="UTF-8"?>
<svg width="20px" height="20px" viewBox="0 0 20 20" version="1.1" xmlns="http://www.w3.org/2000/svg" xmlns:xlink="http://www.w3.org/1999/xlink">
    <!-- Generator: Sketch 47.1 (45422) - http://www.bohemiancoding.com/sketch -->
    <title>pin</title>
    <desc>Created with Sketch.</desc>
    <defs></defs>
    <g id="Page-1" stroke="none" stroke-width="1" fill="none" fill-rule="evenodd">
        <g id="头像hover" transform="translate(-711.000000, -532.000000)" fill-rule="nonzero" fill="#FFFFFF">
            <g id="Group-14" transform="translate(198.000000, 436.000000)">
                <g id="Group" transform="translate(411.000000, 96.000000)">
                    <g id="github" transform="translate(34.000000, 0.000000)">
                        <g id="pinterest" transform="translate(68.000000, 0.000000)">
                            <path d="M20,10 C20,11.8147321 19.5524554,13.4877232 18.6584821,15.0200893 C17.7645089,16.5524554 16.5513393,17.765625 15.0189732,18.6595982 C13.4866071,19.5535714 11.8136161,20.0011161 9.99888393,20.0011161 C9.03571429,20.0011161 8.08928571,19.8627232 7.16071429,19.5848214 C7.67299107,18.7779018 8.01116071,18.0658482 8.17633929,17.4497768 C8.25446429,17.1551339 8.48883929,16.2388393 8.87946429,14.7020089 C9.05357143,15.0401786 9.36941964,15.3337054 9.83035714,15.5814732 C10.2901786,15.8292411 10.7857143,15.9520089 11.3147321,15.9520089 C12.3649554,15.9520089 13.3024554,15.6551339 14.1272321,15.0602679 C14.9520089,14.4654018 15.5904018,13.6473214 16.0412946,12.6060268 C16.4921875,11.5647321 16.71875,10.3928571 16.71875,9.09040179 C16.71875,8.10044643 16.4609375,7.171875 15.9441964,6.30357143 C15.4274554,5.43526786 14.6785714,4.72767857 13.6986607,4.18080357 C12.7176339,3.63392857 11.6104911,3.36049107 10.3783482,3.36049107 C9.46651786,3.36049107 8.61607143,3.48660714 7.82589286,3.73772321 C7.03571429,3.98883929 6.36495536,4.32366071 5.81473214,4.73995536 C5.26227679,5.15625 4.7890625,5.63616071 4.39508929,6.17857143 C4.00111607,6.72098214 3.70982143,7.28348214 3.52232143,7.86495536 C3.3359375,8.44642857 3.2421875,9.02790179 3.2421875,9.609375 C3.2421875,10.5122768 3.41629464,11.3069196 3.76339286,11.9921875 C4.11049107,12.6774554 4.61830357,13.1595982 5.28683036,13.4375 C5.546875,13.5412946 5.71205357,13.4553571 5.78125,13.1774554 C5.79910714,13.1171875 5.83370536,12.9821429 5.88504464,12.7734375 C5.9375,12.5647321 5.97209821,12.4352679 5.98883929,12.3828125 C6.04129464,12.1830357 5.99330357,11.9966518 5.84598214,11.8225446 C5.40290179,11.2935268 5.18191964,10.6372768 5.18191964,9.85602679 C5.18191964,8.54575893 5.63504464,7.41852679 6.54241071,6.4765625 C7.44977679,5.53459821 8.63616071,5.06361607 10.1037946,5.06361607 C11.4140625,5.06361607 12.4363839,5.41964286 13.1707589,6.13169643 C13.9051339,6.84375 14.2712054,7.76785714 14.2712054,8.90513393 C14.2712054,10.3805804 13.9743304,11.6350446 13.3794643,12.6685268 C12.7845982,13.7020089 12.0234375,14.2176339 11.09375,14.2176339 C10.5647321,14.2176339 10.1383929,14.0290179 9.81808036,13.6506696 C9.49665179,13.2734375 9.39732143,12.8191964 9.51897321,12.2901786 C9.58816964,11.9866071 9.703125,11.5803571 9.86383929,11.0725446 C10.0245536,10.5647321 10.1551339,10.1171875 10.2544643,9.73102679 C10.3537946,9.34486607 10.4040179,9.01674107 10.4040179,8.74776786 C10.4040179,8.31361607 10.2868304,7.953125 10.0524554,7.66741071 C9.81808036,7.38058036 9.484375,7.23772321 9.05022321,7.23772321 C8.51227679,7.23772321 8.05580357,7.48549107 7.68303571,7.97991071 C7.31026786,8.47433036 7.12276786,9.09151786 7.12276786,9.82924107 C7.12276786,10.4631696 7.23102679,10.9921875 7.44866071,11.4174107 L6.15959821,16.8604911 C6.01227679,17.4676339 5.95535714,18.2366071 5.98995536,19.1651786 C4.20200893,18.375 2.75669643,17.1551339 1.65401786,15.5066964 C0.551339286,13.8582589 0,12.0223214 0,10 C0,8.18526786 0.447544643,6.51227679 1.34151786,4.97991071 C2.23549107,3.44754464 3.44866071,2.234375 4.98102679,1.34040179 C6.51339286,0.446428571 8.18526786,0 10,0 C11.8147321,0 13.4877232,0.447544643 15.0200893,1.34151786 C16.5524554,2.23549107 17.765625,3.44866071 18.6595982,4.98102679 C19.5524554,6.51227679 20,8.18526786 20,10 Z" id="pin"></path>
                        </g>
                    </g>
                </g>
            </g>
        </g>
    </g>
</svg>