<?xml version="1.0" encoding="UTF-8"?>
<svg width="17px" height="20px" viewBox="0 0 17 20" version="1.1" xmlns="http://www.w3.org/2000/svg" xmlns:xlink="http://www.w3.org/1999/xlink">
    <!-- Generator: Sketch 47.1 (45422) - http://www.bohemiancoding.com/sketch -->
    <title>QQ</title>
    <desc>Created with Sketch.</desc>
    <defs></defs>
    <g id="Page-1" stroke="none" stroke-width="1" fill="none" fill-rule="evenodd">
        <g id="头像hover" transform="translate(-268.000000, -528.000000)" fill-rule="nonzero" fill="#FFFFFF">
            <g id="qq" transform="translate(268.000000, 528.000000)">
                <path d="M8.41470428,-3.23325635e-07 C8.37776824,-3.23325635e-07 8.34083221,0.000344871981 8.30355098,0.00103526259 C7.8648061,0.0113911609 7.45678375,0.0566119218 7.07741268,0.132209967 C5.44187124,0.452552404 4.33689696,1.33522008 3.62717278,2.44468192 C2.9150322,3.56035729 2.72551927,4.53760884 2.48491727,5.53557218 L2.50770024,5.57216302 C2.43762533,5.9598188 2.39378535,6.31122893 2.36686002,6.60637201 C2.3188777,6.63260695 2.10623661,6.75687773 1.91810446,6.99264698 L1.91879485,6.98988542 L1.89670228,7.01991753 L1.86528939,7.06237671 L1.82421099,7.12485729 L1.79694046,7.16904245 L1.75827843,7.24118854 L1.73515027,7.28813528 L1.7020114,7.36960166 L1.68268039,7.42034557 L1.65679064,7.51113227 L1.64263757,7.56498293 C1.63538845,7.59777662 1.6305557,7.63229627 1.62572295,7.66716113 L1.61743824,7.72239258 C1.61329587,7.76070941 1.61226029,7.8010974 1.61156988,7.84148541 L1.60949871,7.89257451 C1.6098439,7.95125792 1.61364107,8.01201251 1.62123539,8.07552868 C1.62123539,8.07552868 1.11724836,8.328903 1.41101066,9.4117847 C1.41101066,9.4117847 1.45933818,9.4818596 1.54598254,9.59128692 C1.08479989,10.2326622 -0.401961826,12.5044009 0.104786779,14.5127547 C0.104786779,14.5127547 0.160018223,14.6418582 0.298096854,14.6418582 C0.344353201,14.6418582 0.400275055,14.62736 0.466207593,14.588698 C0.640531887,14.4858294 0.859386512,14.1606542 1.26982526,13.6839377 C1.26982526,13.6839377 1.38650172,15.774103 3.39520067,17.2881353 C3.22812552,17.3074663 3.06346675,17.3347368 2.90812828,17.3740892 C2.90812828,17.3740892 1.48522793,17.8342363 1.48522793,18.6406155 C1.48522793,19.4473399 3.03067306,19.8156647 3.03067306,19.8156647 C3.03067306,19.8156647 3.82566082,19.9968929 4.82500494,19.9968929 C5.80881522,19.9968929 6.99042315,19.8211878 7.80750347,19.1245811 C7.94523692,19.0068691 8.04085637,18.8967514 8.10644372,18.7935376 C8.21207387,18.7997511 8.31459727,18.8080359 8.42367939,18.8121782 C8.42367939,18.8121782 8.43990363,18.8125234 8.47097133,18.8125234 C8.5434626,18.8125234 8.6967299,18.8104522 8.90937099,18.79768 C8.97426794,18.8998582 9.06954222,19.0079047 9.20589485,19.1245811 C10.0229752,19.8215331 11.2045831,19.9965477 12.1883934,19.9965477 C12.2001301,19.9965477 12.2115216,19.9965477 12.2232583,19.9965477 C12.2992015,19.9986189 12.3765255,19.9999997 12.45454,19.9999997 C12.942648,19.9999997 13.4687276,19.9527077 13.9754761,19.8170455 L13.9827253,19.8156647 L13.9958427,19.8122127 L14.0276008,19.803928 C14.2222917,19.7518033 15.0466212,19.5098205 15.383533,19.0500187 L15.4114939,19.0041075 C15.4819141,18.894335 15.5271348,18.7738614 15.5271348,18.6406155 C15.5271348,17.8342363 14.1045797,17.3740892 14.1045797,17.3740892 C13.890903,17.3198934 13.6613472,17.2874449 13.4297203,17.2694947 C14.4156018,16.5231796 15.2423476,15.4171698 15.5509534,13.7754148 C15.5509534,13.7754148 16.091186,14.4948045 16.4864361,14.7008868 C16.5357992,14.7271218 16.5872335,14.7385133 16.6348707,14.7385133 C16.6835434,14.7385133 16.7277286,14.7267766 16.7622482,14.70641 C16.8330135,14.6639508 16.8740919,14.527253 16.8979105,14.3014944 C16.9838644,13.4971863 16.6935541,11.6420999 15.7401211,10.2747762 C15.7401211,10.2747762 15.4042448,9.8059992 15.1432762,9.52052161 C15.1615716,9.45907663 15.1733083,9.39935761 15.1733083,9.34240019 C15.1733083,8.81252342 14.7739159,8.6513166 14.7739159,8.53636614 C14.7739159,8.42107047 15.0259094,7.9833612 14.9844858,7.38444512 C14.979653,7.31678659 14.9658451,7.25672239 14.9485853,7.19976495 L14.9340871,7.15592497 C14.9178628,7.11139462 14.898877,7.07031622 14.8767844,7.0323446 L14.8626314,7.00610966 C14.8388128,6.96848323 14.8129231,6.93292798 14.7849621,6.90186028 L14.7853073,6.90565745 C14.5995916,6.69474234 14.3534664,6.62397703 14.3534664,6.62397703 C14.3534664,6.62397703 14.289605,5.11167076 13.9219707,3.98218754 L13.9375045,3.99737617 C13.8757143,3.80786325 13.8056394,3.61696954 13.7262442,3.42780181 C13.3727629,2.59346165 12.8225195,1.80054508 12.027877,1.1923087 C11.5525413,0.826745503 10.9898708,0.527460059 10.3284742,0.325865257 C9.77029129,0.155683326 9.13547475,-3.23325635e-07 8.41470428,-3.23325635e-07" id="QQ"></path>
            </g>
        </g>
    </g>
</svg>