<?xml version="1.0" encoding="UTF-8"?>
<svg width="20px" height="20px" viewBox="0 0 20 20" version="1.1" xmlns="http://www.w3.org/2000/svg" xmlns:xlink="http://www.w3.org/1999/xlink">
    <!-- Generator: Sketch 47.1 (45422) - http://www.bohemiancoding.com/sketch -->
    <title>Shape</title>
    <desc>Created with Sketch.</desc>
    <defs></defs>
    <g id="Page-1" stroke="none" stroke-width="1" fill="none" fill-rule="evenodd">
        <g id="头像hover" transform="translate(-856.000000, -532.000000)" fill-rule="nonzero" fill="#FFFFFF">
            <g id="Group-14" transform="translate(198.000000, 436.000000)">
                <path d="M667.82496,104.346857 C667.829836,104.343224 667.839101,104.339937 667.843977,104.336477 C667.82496,104.301009 667.805943,104.27056 667.79619,104.246857 C667.805943,104.280767 667.820084,104.312947 667.82496,104.346857 Z M671.654236,108.503371 L671.654236,108.498495 C671.64936,108.498495 671.640095,108.498495 671.640095,108.493619 C671.644484,108.498495 671.64936,108.498495 671.654236,108.503371 Z M671.740571,108.524411 C671.717333,108.51561 671.66419,108.530956 671.642857,108.495524 C671.62981,108.601596 671.649333,108.641316 671.740571,108.524411 Z M668,96 C662.476571,96 658,100.476571 658,106 C658,111.522476 662.476571,116 668,116 C673.522476,116 678,111.522476 678,106 C678,100.476571 673.522476,96 668,96 Z M674.386952,99.9062857 C674.042667,99.9164762 673.802571,99.9174286 673.526286,100.10819 C673.414571,100.185429 673.339238,100.287714 673.19781,100.32781 C673.070286,100.363143 672.933619,100.331524 672.806952,100.374286 C672.352857,100.528762 672.425429,101.502095 671.82619,101.355048 C671.545238,101.286095 671.347048,100.953048 671.205524,100.736286 C671.080762,100.545524 670.85381,100.388286 671.007333,100.149143 C670.936667,100.166857 670.86219,100.146381 670.793333,100.159333 C670.890095,99.9490476 671.211143,99.9676191 671.264095,99.8597143 C671.398095,99.5899048 670.897429,99.562 670.756095,99.5239048 C670.927333,99.3424762 671.012857,99.5853333 671.182286,99.544381 C671.34419,99.504381 671.096667,99.2912381 670.998952,99.2670476 C670.964571,99.2586667 670.394095,99.4252381 670.724476,99.1294286 C670.316952,98.8697143 669.909333,98.6101905 669.501714,98.3505714 C669.432857,98.6389524 670.04419,98.8037143 670.243333,98.9051429 C670.212667,99.0241905 670.026571,99.1981905 669.885048,99.1470476 C669.751143,99.0995238 669.805048,98.8771429 669.603143,98.8995238 C669.458857,99.2353333 669.908381,99.1367619 669.950286,99.342381 C669.997714,99.5768571 669.78,99.4781905 669.697143,99.4735238 C669.676667,99.4725714 669.521333,99.3117143 669.512952,99.4335238 C669.502762,99.5786667 669.761333,99.522 669.779048,99.668 C669.478476,99.6800952 669.324095,99.5721905 669.079238,99.408381 C668.792667,99.2185714 668.645619,99.2361905 668.295714,99.2361905 C668.4,99.1934286 668.545143,99.1608571 668.634476,99.0919048 C668.682857,99.0538095 668.875429,98.8667619 668.888476,98.8248571 C668.942476,98.6452381 668.885714,98.6592381 668.712667,98.5411429 C668.56,98.436 668.373905,98.248 668.188762,98.2107619 C667.516952,98.0767619 667.981238,98.818381 667.471333,98.9198095 C667.480667,98.9207619 667.489905,98.9207619 667.497333,98.9207619 L667.468476,98.9207619 C667.469429,98.9207619 667.470381,98.9207619 667.471238,98.9198095 C667.354095,98.9160953 667.132571,98.8871429 667.056286,98.9496191 C667.002381,98.9933333 666.998667,99.1692381 666.93819,99.2333333 C666.831143,99.3468571 666.672,99.3692381 666.544571,99.452 C666.420762,99.5320952 666.146286,99.7377143 666.073714,99.8772381 C665.803905,100.39181 666.679429,100.550952 667.011714,100.701714 C667.161524,100.769619 667.599809,100.862571 667.681619,100.97619 C667.791429,101.127905 667.587714,101.271143 667.815619,101.37819 C667.889048,101.412571 668.039809,101.419143 668.102286,101.348381 C668.204571,101.232952 668.061238,101.20781 668.03619,101.074762 C667.988762,100.818 668.066857,100.920381 668.196286,100.824476 C668.458667,100.630952 668.399143,100.618857 668.305238,100.31 C668.261429,100.166667 668.095809,99.765619 668.240952,99.6595238 C668.430762,99.5209524 668.835524,99.734 668.981619,99.7517143 C669.150952,99.7731428 669.246762,100.007619 669.338952,100.103429 C669.400381,100.167619 669.51019,100.302571 669.617143,100.287619 C669.787429,100.264381 669.715809,100.115524 669.814381,100.047524 C670.079524,99.8641904 670.149429,100.112762 670.254476,100.362095 C670.353143,100.596571 670.447048,100.683048 670.623905,100.833809 C670.705809,100.903619 671.064952,101.153048 671.031429,101.306571 C671.00819,101.409809 670.597809,101.567048 670.488,101.602381 C670.086952,101.728952 669.334286,101.394 669.253238,102.030381 C669.409619,101.971809 669.851524,101.610762 669.984667,101.782 C670.045143,101.859238 669.937238,101.972762 669.962381,102.049905 C670.037714,102.281619 670.216381,102.200667 670.403428,102.163429 C670.391333,102.171809 670.378286,102.178286 670.364381,102.184857 C670.620286,102.052667 670.593238,102.080571 670.710571,101.867524 C670.749619,101.797809 670.806381,101.629333 670.860286,101.579143 C671.046381,101.407905 671.075238,101.526095 671.189714,101.65819 C671.220381,101.692571 671.505238,102.103048 671.403714,102.082476 C671.072381,102.016476 670.754286,102.024857 670.479714,102.206286 C670.320667,102.310571 670.171809,102.451905 669.981905,102.521809 C669.937238,102.537619 669.601333,102.57019 669.641333,102.512476 C669.699048,102.428667 669.898095,102.373809 669.976381,102.283524 C669.758667,102.19419 669.577238,102.392476 669.406,102.507809 C669.223619,102.594286 669.181809,102.754381 669.027238,102.894762 C668.959333,102.956286 668.831809,102.966476 668.764857,103.047429 C668.700571,103.125619 668.693143,103.248381 668.631809,103.322952 C668.589047,103.375048 668.479143,103.343429 668.434571,103.421524 C668.376952,103.523905 668.487619,103.618762 668.463428,103.693238 C668.418762,103.827238 668.163809,103.940857 668.066095,104.036571 C668.079143,104.024476 668.092095,104.011429 668.105238,103.998476 C668.006571,104.101809 667.882762,104.177143 667.805619,104.29619 C667.840952,104.465524 667.951714,104.866571 667.921048,104.958762 C667.818667,105.262952 667.620476,104.794095 667.539524,104.672095 C667.263143,104.25619 666.710476,104.534476 666.332667,104.568857 C665.849714,104.613524 665.377048,105.240667 665.674762,105.748762 C665.818095,105.993429 666.058095,106.087429 666.334571,106.030667 C666.58019,105.980476 666.653714,105.637048 666.884381,105.630571 C667.309714,105.619429 666.893714,106.047429 666.857428,106.204667 C666.823048,106.349809 666.910571,106.362857 667.060286,106.399143 C667.171048,106.425143 667.327428,106.351714 667.423238,106.414952 C667.483714,106.454952 667.480857,106.672667 667.563809,106.60381 C667.4,106.739714 667.43819,107.060667 667.605619,107.177048 C667.791714,107.306381 668.010381,107.186381 668.204857,107.235619 C668.572381,107.329619 668.396571,107.207714 668.719428,107.013238 C668.937143,106.882 668.972476,107.038381 669.121428,107.038381 C669.222762,107.039333 669.286952,106.893238 669.456381,106.936095 C669.594095,106.970476 669.648952,107.076571 669.813714,107.101619 C669.881619,107.111048 669.951428,107.075619 670.015619,107.083048 C670.320857,107.117524 670.553428,107.312 670.793524,107.487809 C670.991714,107.632952 671.122952,107.603238 671.353714,107.669238 C671.523048,107.717714 671.834762,107.962381 671.818952,108.176381 C671.81619,108.214476 671.66819,108.408095 671.643048,108.494571 C671.685809,108.525333 671.986381,108.457333 672.074762,108.451809 C672.045905,108.485333 671.841238,108.628571 671.841238,108.552381 C671.841238,108.591429 671.986381,108.672381 672.020857,108.696571 C672.127905,108.350476 672.303809,108.573809 672.514095,108.659333 C672.693619,108.732 672.915143,108.736667 673.105905,108.78219 C673.268667,108.820286 673.626952,108.93019 673.746952,109.063143 C673.892,109.223238 673.791619,109.482762 673.684571,109.640952 C673.544095,109.850286 673.332952,109.930381 673.245428,110.175048 C673.176571,110.369524 673.228667,110.565905 673.188667,110.781714 C673.135619,111.072952 673.092762,110.970571 672.904952,111.148381 C672.746762,111.298095 672.90219,111.272095 672.687143,111.368 C672.470381,111.463809 672.280476,111.435905 672.130762,111.67219 C672.137238,111.657333 672.141905,111.642381 672.145619,111.627524 C672.082286,111.716 672.051619,111.896381 672.020857,111.956 C671.945524,112.107714 671.841238,112.202571 671.72219,112.329143 C671.676571,112.377524 671.255905,112.951619 671.231809,112.905143 C671.201143,112.845524 670.869809,112.965619 670.853047,112.879905 C670.866952,112.952571 670.850286,112.928381 670.933143,112.969238 C670.856762,113.440952 670.656762,113.511714 670.193333,113.516381 C670.233333,113.743429 670.024857,113.697714 669.929143,113.819714 C669.872286,113.891333 669.845333,114.091429 669.806286,114.183524 C669.782095,114.242095 669.600667,114.473809 669.600667,114.519429 C669.600667,114.56219 669.662095,114.624571 669.718857,114.684095 C669.39219,114.748381 669.059047,114.793905 668.720476,114.820952 C668.783714,114.740952 668.799524,114.671143 668.597619,114.661809 C668.651524,114.514857 668.77819,114.431048 668.832095,114.288667 C668.857238,114.221714 668.835809,114.195619 668.858095,114.128667 C668.931619,113.899714 668.9,113.986286 668.858095,113.808571 C668.760476,113.390762 668.892476,113.276286 669.006952,112.893905 C669.123333,112.501333 669.112095,111.992286 669.187524,111.568952 C669.222857,111.367048 669.280571,110.945524 669.210762,110.75381 C669.131714,110.537905 668.782762,110.368571 668.623619,110.223429 C668.397524,110.01781 668.277428,109.795429 668.109143,109.540476 C668.024381,109.411143 667.926762,109.284476 667.860667,109.144095 C667.718381,108.843524 667.860667,109.02219 667.884857,108.845333 C667.907238,108.673143 667.864381,108.520667 667.932381,108.341048 C668.007714,108.141905 668.195714,108.018095 668.257047,107.817143 C668.312952,107.638476 668.270095,107.414286 668.086762,107.354762 C667.984476,107.321238 667.871809,107.398476 667.769524,107.381714 C667.62619,107.358476 667.464286,107.251429 667.351714,107.165809 C667.194476,107.046667 667.135809,106.85219 666.969238,106.738762 C666.829619,106.644762 666.730095,106.701429 666.580286,106.656857 C666.423905,106.611238 666.32819,106.418667 666.201524,106.35819 C666.012666,106.267905 665.906571,106.397238 665.707428,106.371238 C665.538095,106.348952 665.279333,106.160952 665.121238,106.09019 C664.798286,105.946 664.602,105.786857 664.473524,105.460286 C664.363809,105.179333 664.202762,105.049048 664.012952,104.815429 C663.821238,104.579143 663.760857,104.377143 663.464857,104.313905 C663.430476,104.306476 663.537524,104.562286 663.548667,104.582762 C663.654667,104.77819 663.812857,104.957809 663.941333,105.139238 C664.128381,105.408095 664.048286,105.458381 663.857524,105.198762 C663.638857,104.902 663.385809,104.606952 663.196,104.292381 C663.124381,104.173333 663.138381,104.096 663.020095,103.983524 C662.905714,103.874571 662.756762,103.821619 662.641333,103.718381 C662.22819,103.34619 662.152857,102.849238 662.199333,102.318952 C662.215143,102.145905 662.277428,102.008095 662.249524,101.841524 C662.227238,101.703905 662.145333,101.590286 662.043905,101.487905 C662.011333,101.435809 661.929524,101.307429 661.923905,101.299143 C661.829905,101.142762 661.757333,100.99019 661.608381,100.861714 C661.521905,100.788286 661.300476,100.616095 661.091905,100.470857 C662.028952,99.3031428 663.255333,98.3773333 664.661333,97.8021904 C664.672476,97.8728571 664.702381,97.943619 664.747905,98.0105714 C664.86419,98.1827618 664.974,98.1687618 665.200095,98.2161904 C665.175905,98.477619 664.869714,98.4803809 664.662286,98.451619 C664.414762,98.4180952 664.154286,98.3353333 663.940286,98.5530476 C664.058381,98.6237142 664.383143,98.9010476 664.340381,98.611619 C664.577619,98.5995238 664.806571,98.5920952 665.03819,98.6209523 C665.131333,98.6320952 665.442952,98.7363809 665.526762,98.6888571 C665.562095,98.6683809 665.60019,98.4943809 665.637428,98.4404761 C665.571428,98.4404761 665.500571,98.4079047 665.434571,98.4135237 C665.588095,98.2171428 665.740762,98.3717142 665.93619,98.4619047 C665.721238,98.5931428 665.848666,98.9058095 666.058952,98.6517142 C666.232,98.4423809 666.017143,98.2897142 665.797524,98.1679047 C666.018952,97.8915238 666.155809,97.8663809 666.363238,98.1790476 C666.397619,97.9864761 666.553047,98.063619 666.715905,98.077619 L666.715905,98.029238 C666.64419,98.0311428 666.567905,97.9901904 666.497143,97.997619 C666.661809,97.7334285 666.556762,97.6728571 666.793047,97.587238 C666.981905,97.5183809 667.518857,97.5825714 667.584857,97.4048571 C667.208952,97.4782856 666.754857,97.4959999 666.415238,97.6662856 C666.269238,97.7409524 666.095238,97.973619 665.949238,97.8219048 C665.798476,97.6664762 666.05619,97.4171429 666.187429,97.3408571 L666.15581,97.3408571 C666.751333,97.2142857 667.367333,97.146381 668,97.146381 C668.408476,97.146381 668.810476,97.1770476 669.204095,97.2310476 C669.06819,97.3027619 669.168762,97.3511429 669.069143,97.423619 C668.879333,97.5632381 668.542571,97.6795238 668.317333,97.7679048 C668.603905,97.7679048 669.299048,98.0377143 669.432952,97.6348571 C669.339905,97.6209524 669.247809,97.606 669.154762,97.5920952 C669.327809,97.477619 669.520476,97.3845714 669.723333,97.3166667 C671.550762,97.6785714 673.177333,98.6053333 674.412952,99.9061905 C674.404571,99.9062857 674.39619,99.9062857 674.386952,99.9062857 Z M676.006,103.416952 C676.02181,103.382571 676.060857,103.370476 676.076667,103.341619 C676.110286,103.280095 676.102762,103.239238 676.143714,103.187143 C676.187429,103.130381 676.246952,103.116476 676.296286,103.072667 C676.315905,103.054095 676.327048,103.038286 676.336381,103.021524 C676.483333,103.432762 676.601524,103.858 676.687143,104.295333 C676.684381,104.299048 676.682476,104.30381 676.679714,104.305619 C676.658286,104.323333 676.517905,104.343714 676.488952,104.344667 C676.387619,104.348381 676.312286,104.281333 676.239619,104.218095 C676.165238,104.153905 676.077714,104.067333 676.025619,103.983619 C675.968857,103.895143 676.00419,103.804 676.007905,103.701714 C676.011524,103.616095 675.969714,103.494095 676.006,103.416952 Z M676.120476,108.002381 C675.948286,107.852571 675.745429,107.652476 675.623524,107.459905 C675.493238,107.253333 675.573333,107.041238 675.583524,106.80581 C675.590952,106.606667 675.49419,106.324762 675.577905,106.146095 C675.616952,106.06419 675.706381,106.037143 675.742571,105.97019 C675.81981,105.828762 675.803048,105.732952 675.897905,105.611048 C676.000286,105.480762 676.138,105.44819 676.251524,105.345905 C676.370667,105.238857 676.367905,105.153333 676.443238,105.015524 C676.49819,104.915048 676.628381,104.747619 676.751238,104.659143 C676.81819,105.096476 676.852571,105.544095 676.852571,106 C676.852571,106.788095 676.748381,107.552095 676.553905,108.279714 C676.388381,108.236857 676.252476,108.11781 676.120476,108.002381 Z" id="Shape"></path>
            </g>
        </g>
    </g>
</svg>